<?xml version="1.0"?>
<svg width="1280" height="1266" xmlns="http://www.w3.org/2000/svg" xmlns:svg="http://www.w3.org/2000/svg" preserveAspectRatio="xMidYMid meet">
 <metadata>Created by potrace 1.15, written by Peter Selinger 2001-2017</metadata>
 <g class="layer">
  <title>Layer 1</title>
  <g fill="#000000" id="svg_1" transform="translate(0.000000,1266.000000) scale(0.100000,-0.100000)">
   <path d="m8280,12654c-87,-17 -202,-50 -277,-80c-163,-65 -420,-99 -738,-98c-187,0 -251,4 -340,21c-89,17 -113,18 -125,8c-8,-7 -40,-23 -70,-35c-30,-13 -73,-40 -95,-61c-46,-43 -483,-338 -627,-423c-140,-82 -230,-120 -362,-155c-206,-54 -349,-139 -411,-245c-98,-169 -96,-537 5,-763c33,-73 99,-148 146,-165c19,-6 37,-20 40,-30c3,-11 27,-29 52,-41c50,-24 48,-20 77,-147c10,-41 49,-142 87,-225c100,-214 120,-275 122,-365c1,-70 -2,-82 -48,-180c-42,-89 -50,-114 -50,-167c-1,-49 -4,-63 -18,-66c-10,-3 -19,-20 -24,-42c-4,-23 -13,-39 -24,-42c-13,-4 -24,-33 -44,-118c-33,-136 -92,-309 -215,-624c-59,-153 -87,-237 -80,-241c6,-4 -11,-31 -44,-69c-102,-117 -176,-290 -218,-511c-17,-92 -22,-160 -25,-345l-4,-230l-42,-11c-49,-12 -80,-27 -96,-46c-8,-10 -9,-77 -4,-236l8,-222l31,-32c49,-51 80,-123 102,-238c55,-282 51,-268 134,-430c94,-184 107,-221 107,-321c0,-65 -6,-92 -40,-184c-23,-59 -63,-153 -90,-209c-78,-160 -94,-230 -94,-426c0,-143 4,-180 26,-275c46,-194 127,-390 253,-610c38,-65 83,-153 100,-195c27,-66 35,-76 65,-86c43,-14 63,-39 162,-204c74,-121 155,-222 199,-246c9,-5 65,-83 124,-174c59,-91 131,-194 160,-230c59,-73 69,-92 150,-275c101,-229 164,-303 298,-354c18,-7 27,-18 27,-33c1,-13 7,-34 15,-48c23,-40 18,-47 -47,-69c-105,-35 -168,-49 -451,-101c-284,-53 -443,-88 -515,-114c-32,-11 -63,-14 -115,-10c-45,4 -116,0 -187,-10c-164,-23 -181,-22 -216,15c-33,35 -84,63 -130,73c-18,4 -51,25 -73,47c-41,38 -128,89 -153,89c-7,0 -33,11 -58,24c-25,13 -63,29 -84,36c-21,7 -58,26 -81,42c-26,18 -60,32 -86,35c-43,4 -52,2 -248,-69c-29,-10 -56,-16 -59,-13c-13,13 40,95 113,175c83,90 120,157 131,230c4,25 12,52 19,60c60,71 108,210 166,474c37,171 44,194 80,247c69,101 108,224 124,395c7,69 7,71 -30,129c-21,32 -64,119 -97,194c-95,217 -149,296 -224,327c-58,24 -64,20 -58,-34c15,-118 61,-229 156,-377c25,-39 57,-93 71,-121l26,-51l-19,-95c-23,-112 -54,-219 -149,-518c-84,-262 -122,-418 -126,-513c-2,-52 -8,-71 -23,-85c-11,-9 -102,-114 -203,-232c-198,-233 -400,-459 -473,-530c-25,-24 -46,-49 -46,-55c0,-6 -15,-19 -32,-30c-49,-28 -162,-122 -265,-222c-70,-68 -99,-103 -122,-153c-47,-99 -42,-140 18,-140c69,0 158,109 162,200c2,29 14,46 73,103c94,91 187,157 220,157c15,0 38,7 51,16c22,15 28,14 87,-14c186,-88 305,-97 678,-52c85,10 179,21 209,24l53,5l60,-57c33,-31 108,-111 166,-177c286,-324 331,-368 427,-416c118,-58 188,-73 335,-73c259,1 563,103 827,277c97,65 228,175 219,184c-9,9 38,41 51,36c26,-10 62,7 65,30c5,36 64,50 183,42c55,-3 109,-12 120,-19c37,-24 110,-33 246,-28c153,5 146,9 173,-83c27,-92 59,-139 108,-163c54,-25 61,-17 59,75c0,45 -9,83 -27,126c-14,34 -37,92 -51,129c-29,77 -44,86 -99,63c-51,-21 -64,-14 -64,33c0,67 31,77 194,67l114,-7l28,-39c29,-39 164,-139 189,-139c7,0 18,-7 25,-16c8,-8 25,-14 39,-12c36,4 38,35 7,101c-20,42 -40,64 -85,95c-57,40 -91,79 -91,103c0,19 114,2 174,-26c32,-15 96,-64 157,-121c138,-128 211,-164 299,-149c33,5 40,11 40,29c0,45 -45,110 -118,171c-41,33 -78,68 -83,77c-6,11 -2,35 12,75c30,80 114,160 254,242c61,35 128,76 151,91c38,25 49,27 175,33c294,12 486,84 931,350l206,123l-17,40c-22,48 -48,72 -87,80c-23,4 -56,-8 -157,-60c-71,-36 -138,-66 -150,-66c-13,0 -40,-19 -66,-46c-54,-56 -130,-95 -284,-145l-118,-39l-26,20c-21,17 -41,20 -115,20c-110,0 -105,2 -393,-188c-146,-97 -247,-156 -300,-177c-115,-45 -117,-47 -185,-130c-71,-87 -107,-110 -156,-100c-41,7 -104,67 -104,98c0,30 96,157 295,387c92,107 173,203 179,212c6,10 18,18 27,18c9,0 29,10 44,22c25,19 27,25 20,67c-19,130 -28,108 80,207c112,102 266,268 370,399c94,117 218,302 211,314c-8,12 238,345 364,493c336,394 548,631 618,692c44,38 81,68 83,66c2,-2 48,31 101,72c53,42 115,86 137,99l41,23l0,98c0,54 7,163 16,241c9,78 17,204 17,281l1,138l48,-5c27,-4 66,-16 88,-28c35,-20 40,-28 49,-73c5,-28 14,-154 19,-281c8,-192 13,-240 31,-290c12,-33 22,-64 24,-69c4,-15 -145,-110 -290,-186c-74,-38 -167,-92 -206,-119c-68,-46 -187,-161 -187,-181c0,-5 8,-14 19,-19c10,-6 26,-30 36,-53l17,-43l-43,-35c-24,-19 -69,-60 -100,-92c-36,-36 -84,-70 -135,-96c-103,-52 -175,-109 -219,-174c-42,-62 -44,-96 -10,-128c27,-26 32,-57 13,-82c-7,-8 -65,-53 -128,-100c-216,-158 -360,-300 -360,-353c0,-48 43,-40 85,17c17,22 61,70 99,106c82,77 336,268 385,289c59,25 160,97 246,175c11,10 67,42 125,72c58,30 161,86 230,126c168,95 276,146 394,185c110,36 131,55 98,87l-20,21l-99,-32c-119,-38 -267,-109 -468,-223c-243,-138 -297,-162 -318,-142c-15,15 99,120 174,161c43,23 126,73 186,111c59,38 168,107 240,153c144,91 146,94 117,164c-21,50 -9,76 52,115c87,55 143,51 367,-22c146,-47 154,-58 91,-119c-36,-34 -36,-34 -30,-99c3,-36 19,-103 36,-150c19,-55 30,-105 30,-141c0,-50 3,-57 31,-78c17,-13 42,-48 56,-80c14,-31 44,-80 67,-110c48,-64 53,-109 17,-158c-18,-24 -34,-33 -67,-38c-169,-25 -611,-160 -974,-297c-166,-62 -674,-270 -687,-281c-18,-13 -16,-46 2,-53c8,-3 108,32 223,80c300,123 301,124 1115,397c172,58 389,111 398,97c18,-29 349,46 349,78c0,9 -23,38 -51,66c-44,45 -50,56 -47,87l3,36l70,-1c39,0 124,-4 190,-8c135,-9 189,0 244,41c35,27 64,83 75,144l7,37l-248,-5c-137,-3 -273,-3 -304,1c-55,7 -55,7 -67,51c-6,24 -44,111 -83,192c-84,176 -94,201 -119,317c-39,176 -99,230 -282,251c-96,11 -160,71 -173,163c-3,27 -1,86 7,133c8,51 13,176 13,317l0,234l37,31c31,27 41,46 62,122c29,104 91,287 136,401c40,101 78,166 144,251c82,105 90,126 89,218c-2,89 -25,191 -96,415c-50,160 -75,272 -84,370c-5,62 -8,68 -58,120c-29,30 -80,92 -113,136c-79,106 -152,169 -224,196l-58,21l0,48c0,61 13,96 53,137c61,64 168,103 340,123c98,11 507,8 742,-7l90,-5l78,93c42,51 129,148 192,216c112,121 186,215 219,280c10,19 42,48 80,72c113,71 203,187 221,283c13,70 -3,122 -67,217c-42,62 -61,102 -65,132c-5,36 -18,56 -84,126c-97,104 -158,195 -299,447c-62,110 -157,266 -211,348c-97,146 -130,214 -143,293c-6,32 -14,44 -40,58c-37,20 -63,60 -99,158c-60,158 -276,492 -415,640c-112,120 -274,272 -355,333c-91,69 -294,195 -373,232c-108,49 -190,65 -319,62c-60,-2 -211,2 -335,9c-124,7 -319,17 -435,23c-243,12 -402,30 -566,64c-110,22 -159,37 -374,115c-78,28 -105,33 -200,36c-60,1 -121,0 -135,-2zm412,-180c111,-74 275,-140 420,-169c124,-25 469,-55 630,-55c153,0 299,15 434,44c66,14 77,14 150,-4c142,-34 236,-79 475,-230c75,-47 161,-99 191,-115c46,-24 59,-37 86,-90c44,-84 130,-186 191,-225c48,-31 57,-44 140,-204c49,-94 136,-255 195,-358c101,-180 177,-308 638,-1073c253,-421 368,-625 368,-654c0,-14 -23,-47 -62,-87c-50,-52 -63,-72 -67,-106c-5,-36 -11,-45 -45,-63c-21,-11 -128,-112 -237,-224l-197,-203l-199,-3c-109,-2 -288,-13 -398,-24c-110,-12 -258,-21 -329,-21l-129,0l6,108c4,59 9,153 13,209l7,101l51,16c94,29 160,37 321,37c189,-1 325,-10 325,-23c0,-19 -23,-52 -63,-89c-37,-36 -46,-39 -126,-50c-120,-15 -204,-35 -254,-60c-53,-27 -50,-24 -38,-47c35,-66 226,-69 360,-6c31,15 89,32 129,39c151,28 252,129 252,252c0,52 -24,112 -62,155c-21,24 -39,29 -208,58c-238,41 -452,50 -590,26c-145,-25 -170,-33 -171,-59c-4,-159 -27,-273 -103,-512c-63,-200 -117,-338 -223,-577c-57,-129 -83,-172 -83,-139c0,6 -26,-2 -57,-16c-75,-33 -170,-37 -228,-8c-22,10 -94,72 -160,136c-66,64 -127,120 -137,125c-32,17 -79,87 -74,109c5,18 -7,27 -84,63c-49,23 -169,95 -267,160c-223,149 -243,161 -378,215c-323,132 -785,250 -1145,293c-178,22 -647,25 -815,6c-537,-61 -1006,-184 -1474,-386c-46,-20 -86,-34 -89,-31c-12,11 22,177 60,295c22,69 80,231 128,360c116,308 128,356 145,580c12,169 26,240 46,240c4,0 30,29 59,65c63,79 182,177 264,215c34,16 90,56 126,88c36,32 87,73 114,91c61,42 90,100 80,161c-11,65 -31,83 -101,88l-60,4l-11,67c-15,91 -107,271 -139,271c-31,0 -51,-35 -59,-102c-9,-81 -23,-88 -66,-36c-19,24 -50,65 -68,93c-32,46 -34,54 -31,125c3,104 -15,244 -35,275c-26,40 -48,48 -88,31c-52,-22 -69,-63 -64,-155c5,-86 39,-175 82,-212c14,-12 41,-49 61,-83c19,-33 58,-87 85,-119c39,-46 50,-66 50,-93c0,-42 26,-56 87,-45c23,5 48,4 56,0c18,-11 54,-94 62,-145c9,-57 -7,-87 -70,-134c-31,-23 -66,-57 -76,-75c-11,-18 -50,-56 -88,-84c-38,-27 -102,-87 -144,-131c-41,-44 -83,-80 -92,-80c-10,0 -31,-11 -47,-25c-16,-14 -33,-23 -38,-20c-8,5 -34,108 -44,175c-3,19 -12,126 -21,238c-8,111 -21,234 -30,273c-28,135 -87,229 -170,269l-44,21l-53,-27c-29,-14 -55,-28 -56,-29c-7,-6 35,-91 76,-153c61,-95 78,-144 64,-191c-26,-85 -72,-85 -115,2c-51,105 -61,172 -62,402c0,116 4,236 8,268l8,57l139,70c83,43 159,89 190,117c35,31 86,61 158,93c132,57 238,121 552,332l245,165l70,6c39,4 209,4 378,0l309,-6l23,29l23,29l180,-3c212,-4 252,3 302,58c64,69 77,72 370,91c146,9 276,15 290,12c14,-2 55,-24 92,-49zm-747,-3505c417,-57 759,-155 1060,-305c201,-99 193,-92 161,-147c-14,-24 -26,-49 -26,-55c0,-6 26,-37 57,-68c42,-41 57,-63 55,-79c-2,-13 11,-40 32,-68c19,-26 32,-49 27,-51c-4,-3 -14,6 -21,19c-18,33 -44,49 -120,74c-50,17 -65,18 -72,9c-12,-19 -10,-30 10,-59c79,-117 82,-124 82,-165c0,-50 21,-80 90,-124c27,-18 50,-36 50,-41c0,-5 -11,-16 -26,-25c-20,-14 -24,-24 -22,-53c3,-34 7,-38 85,-76c91,-45 123,-70 123,-96c0,-27 -17,-32 -52,-15c-17,9 -33,16 -35,16c-1,0 -3,-17 -3,-38c0,-50 19,-74 86,-112c30,-18 53,-37 51,-43c-2,-7 -21,-17 -43,-23c-31,-9 -41,-17 -48,-42c-11,-40 12,-79 52,-88c15,-3 38,-10 52,-16c14,-6 31,-12 38,-12c6,-1 20,-17 30,-36c17,-34 18,-35 79,-35c34,0 64,3 67,6c10,10 -13,72 -36,96c-12,13 -39,28 -61,34c-30,8 -37,13 -28,22c8,8 28,7 80,-6c118,-31 152,-6 131,94c-13,58 -12,59 14,80c35,27 49,57 77,157c15,55 32,94 50,113c38,40 59,38 59,-6l0,-36l28,15c16,8 86,32 158,54c164,51 169,53 229,94l50,34l117,-7c124,-7 177,-24 206,-67c14,-22 14,-22 -49,-22c-35,0 -122,-7 -194,-15c-71,-8 -158,-15 -192,-15l-62,0l-40,-52c-78,-104 -114,-221 -115,-373c-1,-136 10,-168 63,-184c41,-12 103,-66 126,-110c8,-16 31,-73 51,-127c20,-55 43,-108 50,-119c19,-26 18,-29 -12,-65c-15,-17 -26,-42 -26,-55c0,-14 -2,-25 -3,-25c-1,0 -21,27 -44,59c-30,44 -41,69 -41,96c0,60 -21,114 -57,145c-35,31 -71,38 -91,18c-21,-21 -13,-42 25,-74c41,-35 43,-44 29,-185l-8,-85l34,-45c42,-55 62,-58 170,-25c104,32 140,54 161,99c26,54 21,105 -27,255c-25,77 -48,163 -52,193c-8,65 -20,81 -96,121c-122,65 -118,129 21,305c28,34 54,70 59,79c8,14 16,15 63,5c30,-6 108,-15 174,-21c151,-13 213,-27 219,-48c2,-10 7,-39 11,-67c3,-27 29,-153 57,-280c92,-424 78,-554 -82,-754c-101,-126 -113,-150 -105,-211c6,-46 6,-48 -29,-68c-39,-23 -56,-55 -56,-105c0,-26 -11,-44 -55,-87c-34,-34 -60,-70 -67,-92l-11,-38l-101,0l-101,1l-32,47c-18,26 -39,64 -48,86c-9,21 -25,40 -36,43c-16,5 -19,14 -19,68c0,58 -4,68 -59,161c-52,85 -61,108 -66,164c-4,36 -26,126 -50,200c-88,274 -106,368 -106,551l0,125l40,75c22,41 42,90 46,109c7,43 -16,114 -39,118c-33,7 -45,-16 -39,-73c5,-49 2,-60 -37,-132c-24,-43 -48,-80 -53,-82c-59,-22 -83,-145 -74,-383c8,-234 45,-362 222,-773c42,-99 85,-187 94,-195c42,-39 94,-113 115,-166c85,-210 41,-556 -110,-856c-24,-48 -44,-93 -45,-100c0,-7 -34,-42 -75,-78c-227,-196 -545,-561 -846,-971c-74,-101 -152,-202 -174,-224c-21,-23 -90,-100 -153,-173c-138,-160 -397,-415 -542,-534c-358,-294 -751,-509 -1166,-639c-62,-20 -73,-26 -73,-46c0,-25 8,-34 60,-66l35,-22l-64,-3c-90,-4 -170,23 -331,113c-144,80 -239,120 -307,131c-38,6 -41,9 -46,43c-3,20 -8,46 -12,58c-7,21 -6,22 26,11c67,-21 103,-21 129,1l25,21l-57,54c-64,61 -247,187 -323,222c-65,30 -128,110 -297,374c-72,113 -189,293 -258,400c-215,330 -269,420 -341,565c-186,380 -230,703 -153,1130c25,138 90,318 123,343c40,29 64,86 56,128c-3,19 -24,71 -46,116c-22,46 -39,97 -39,116c0,18 -29,120 -64,226c-35,105 -72,225 -81,266c-20,88 -30,331 -18,410l9,55l77,-2c77,-2 138,-10 417,-58c196,-34 184,-35 178,25c-13,131 -129,196 -423,235c-60,9 -141,20 -179,26l-69,11l6,227c8,305 35,466 127,754c67,211 61,203 213,308c254,176 634,310 1255,443l112,24l0,-28c0,-23 -33,-60 -200,-220c-207,-200 -226,-226 -180,-250c18,-10 39,7 193,157c95,92 189,187 210,209c20,23 47,44 60,47c12,3 55,17 95,31c108,39 241,56 445,56l178,0l21,36c24,41 -4,40 273,3zm1372,-496c16,-21 71,-62 122,-92c117,-69 169,-114 192,-165c19,-42 25,-106 11,-106c-18,0 -78,53 -190,169c-65,66 -126,121 -136,121c-16,0 -55,68 -56,98c0,24 27,12 57,-25zm513,-477c0,-2 3,-11 6,-20c5,-12 0,-16 -20,-16c-19,0 -26,5 -26,20c0,13 7,20 20,20c11,0 20,-2 20,-4zm-1527,-5378c4,-14 -24,-49 -227,-284c-71,-82 -157,-187 -192,-234c-73,-99 -109,-124 -295,-203c-69,-29 -147,-68 -173,-86c-60,-42 -102,-107 -117,-183c-11,-55 -14,-58 -48,-68c-45,-12 -144,-13 -156,-1c-6,5 -26,13 -45,18l-35,9l-7,90c-10,144 11,249 61,302c27,27 106,30 172,6c27,-10 86,-18 152,-20c93,-3 109,-2 114,12c3,9 1,24 -5,33c-7,9 -19,32 -28,53c-15,36 -37,50 -97,64c-33,8 -46,32 -26,45c8,5 52,6 100,3c84,-6 85,-6 102,20c23,34 77,68 157,97c49,17 78,36 115,75c40,41 64,55 120,74c108,35 163,65 245,129c75,60 104,72 113,49zm-3764,-599c31,-13 65,-40 96,-76c62,-71 98,-93 156,-93c45,0 46,-1 58,-39c16,-55 87,-116 153,-131c63,-15 245,-8 338,14c78,19 210,40 385,62c78,10 232,42 385,81c326,83 441,103 591,103c111,0 120,-2 146,-24l28,-25l-35,-14c-19,-9 -87,-25 -150,-36c-72,-13 -137,-32 -175,-50c-40,-20 -88,-33 -144,-40c-176,-22 -322,-76 -399,-146c-72,-64 -48,-124 55,-140c97,-14 96,-24 -8,-62c-70,-26 -114,-36 -172,-38c-94,-5 -117,-11 -117,-33c1,-52 79,-82 210,-82c134,0 254,48 427,170l93,65l0,73c0,99 8,112 70,112c32,0 77,11 125,30c42,17 89,30 105,30c69,0 93,-83 45,-154c-14,-20 -25,-40 -25,-45c0,-12 -41,-30 -75,-33c-22,-2 -31,-9 -33,-24c-2,-17 -27,-32 -108,-69c-58,-26 -179,-85 -268,-131c-252,-130 -412,-189 -561,-209c-29,-3 -93,0 -154,9c-58,9 -136,16 -174,16c-66,0 -72,2 -109,36c-41,36 -110,73 -138,74c-18,0 -86,69 -232,235c-58,66 -136,150 -174,187c-38,36 -73,73 -79,81c-5,8 -42,53 -82,100c-77,91 -148,137 -209,137c-53,0 -60,-51 -14,-103c17,-20 30,-46 30,-60c0,-23 -7,-28 -52,-42c-136,-42 -424,-38 -540,7c-36,13 -35,23 5,63c25,25 58,41 149,69c64,20 129,47 145,60c15,12 52,35 81,51c29,16 57,34 63,42c8,9 43,13 126,13c93,0 123,-4 162,-21z" fill="#ffffff" id="svg_2"/>
   <path d="m7883,12000c-29,-12 -54,-52 -55,-87c0,-15 11,-67 25,-115c31,-103 93,-381 103,-455c4,-29 9,-53 11,-53c16,0 62,37 82,66c79,115 80,356 2,528c-48,106 -101,143 -168,116z" fill="#ffffff" id="svg_3"/>
   <path d="m8995,11977c-73,-40 -150,-114 -203,-195c-43,-67 -112,-229 -112,-265c0,-44 -87,-288 -108,-303c-11,-7 -23,-25 -26,-39c-4,-14 -11,-25 -16,-25c-10,0 -14,26 -30,215c-15,166 -34,265 -70,372c-16,47 -31,87 -33,89c-8,9 -80,-62 -100,-99c-20,-39 -22,-59 -27,-287c-5,-243 -6,-245 -33,-297c-15,-29 -27,-68 -27,-86c0,-20 -7,-40 -17,-48c-43,-36 -56,-126 -22,-160c44,-44 104,-1 130,95c16,58 47,126 58,126c18,0 19,-15 4,-90c-15,-82 -12,-124 14,-152c56,-62 150,29 255,248c27,57 51,119 53,136c5,50 93,307 120,353c13,22 56,78 95,125c75,89 141,181 155,215c15,39 22,105 11,105c-6,0 -38,-15 -71,-33z" fill="#ffffff" id="svg_4"/>
   <path d="m7012,11875c-6,-13 -23,-32 -37,-41c-14,-9 -33,-30 -41,-45c-13,-26 -12,-32 25,-103c77,-150 190,-282 406,-479c61,-55 151,-140 202,-189c50,-48 96,-88 102,-88c42,0 50,100 14,180c-11,25 -40,68 -65,95c-24,28 -66,86 -92,130c-101,171 -271,368 -442,513l-61,51l-11,-24z" fill="#ffffff" id="svg_5"/>
   <path d="m6435,11808c-23,-67 -55,-200 -65,-274c-14,-103 -4,-190 28,-253c18,-35 73,-81 97,-81c17,0 25,94 18,209c-7,127 8,201 52,250l33,36l-26,31c-15,17 -35,45 -44,62c-14,27 -23,32 -53,32c-20,0 -38,-6 -40,-12z" fill="#ffffff" id="svg_6"/>
   <path d="m10130,11474c-14,-3 -100,-41 -191,-85c-103,-50 -190,-85 -228,-92c-43,-8 -61,-16 -61,-27c0,-27 -29,-58 -104,-114c-81,-60 -111,-111 -104,-177c3,-30 6,-34 28,-31c45,6 103,40 198,116c77,63 137,96 175,96c28,0 -42,-103 -158,-230c-175,-194 -221,-286 -216,-436l1,-32l58,0c47,1 69,-6 125,-36c95,-50 107,-49 141,22c73,149 202,316 438,564c76,81 137,152 133,158c-3,5 19,23 50,41c57,32 66,48 40,69c-12,10 -23,8 -57,-8c-24,-11 -66,-27 -95,-37c-50,-16 -66,-26 -186,-120c-72,-55 -96,-60 -70,-13c33,60 117,133 186,163c58,26 66,32 71,62c19,108 21,98 -17,122c-36,22 -110,34 -157,25z" fill="#ffffff" id="svg_7"/>
   <path d="m10814,11311c-70,-26 -111,-47 -174,-94c-77,-56 -130,-108 -130,-127c0,-9 -28,-40 -63,-68c-100,-81 -283,-275 -395,-419c-57,-73 -108,-135 -113,-138c-5,-4 -9,-10 -9,-15c0,-14 30,-40 45,-40c8,0 54,53 103,118c142,187 319,375 444,470c11,9 80,16 200,23c195,10 278,22 344,50c54,22 108,71 125,111c13,31 12,32 -34,74c-26,23 -68,49 -94,58c-62,21 -183,20 -249,-3z" fill="#ffffff" id="svg_8"/>
   <path d="m6999,11064c-48,-107 27,-244 133,-244c66,0 68,3 68,100l0,87l-38,25c-21,14 -62,38 -90,52l-53,27l-20,-47z" fill="#ffffff" id="svg_9"/>
   <path d="m6719,11018c-12,-24 -34,-84 -49,-134l-27,-92l40,-31c51,-39 77,-39 121,-1c87,77 98,243 17,284c-53,28 -78,21 -102,-26z" fill="#ffffff" id="svg_10"/>
   <path d="m8730,11034c-102,-44 -171,-179 -144,-281c5,-19 9,-20 37,-11c90,31 162,100 237,227c30,52 31,56 14,68c-24,17 -101,16 -144,-3z" fill="#ffffff" id="svg_11"/>
   <path d="m7250,10920l0,-50l45,0l45,0l0,50l0,50l-45,0l-45,0l0,-50z" fill="#ffffff" id="svg_12"/>
   <path d="m8017,10935c-14,-18 -28,-38 -29,-43c-3,-10 65,-62 80,-62c8,0 66,80 61,83c-2,1 -17,11 -34,23c-16,11 -35,23 -41,27c-5,3 -22,-9 -37,-28z" fill="#ffffff" id="svg_13"/>
   <path d="m9193,10915c-16,-19 -47,-67 -69,-105c-25,-45 -45,-70 -56,-70c-10,0 -18,-4 -18,-9c0,-12 -114,-5 -139,9c-45,23 -73,-19 -37,-55c17,-17 40,-25 82,-30c33,-4 81,-18 108,-31c28,-13 57,-24 65,-24c9,0 29,-7 46,-16c28,-15 31,-14 48,8c35,43 66,116 77,179c17,105 15,112 -34,147l-44,32l-29,-35z" fill="#ffffff" id="svg_14"/>
   <path d="m10859,10910c-62,-11 -125,-44 -175,-94c-23,-22 -79,-62 -125,-89c-46,-26 -103,-65 -127,-87c-37,-34 -49,-40 -87,-40c-36,0 -45,-3 -45,-17c-1,-49 -40,-102 -118,-162c-93,-70 -122,-107 -129,-161c-5,-36 -3,-40 37,-66c35,-23 57,-29 114,-32c75,-4 90,0 366,97c81,29 131,41 170,41c62,0 100,-8 100,-21c0,-16 -76,-59 -191,-108c-168,-71 -211,-95 -252,-140c-42,-47 -53,-80 -49,-150c2,-24 2,-24 95,-18c50,3 186,18 302,32c312,38 488,48 625,35c164,-17 163,-20 -5,-50c-190,-33 -232,-48 -282,-95c-24,-23 -43,-46 -43,-52c0,-18 89,-43 150,-43c32,0 126,17 219,40c130,32 179,40 249,39c88,-1 162,-16 165,-34c4,-22 -197,-82 -400,-119c-192,-35 -349,-44 -402,-23c-56,23 -166,39 -207,31c-43,-8 -94,-49 -94,-75c0,-39 56,-59 162,-59c115,0 373,16 478,31c211,28 704,180 761,235c16,15 29,34 29,41c0,8 -38,31 -84,53c-50,23 -89,47 -96,61c-7,13 -10,44 -8,75c3,30 3,54 1,54c-2,0 -45,7 -96,15c-166,26 -305,36 -505,36c-171,-1 -213,-4 -317,-26c-66,-14 -134,-25 -151,-25c-35,0 -94,18 -94,29c0,11 137,77 241,116c108,42 273,89 403,115c55,11 102,22 104,25c11,10 -23,110 -52,153c-23,35 -47,55 -96,79c-126,64 -285,63 -635,-3c-104,-19 -218,-39 -253,-43c-60,-7 -62,-7 -56,13c17,57 195,176 294,197c87,19 193,73 234,121c20,23 36,45 36,49c0,7 -28,14 -87,23c-16,2 -49,0 -74,-4z" fill="#ffffff" id="svg_15"/>
   <path d="m11744,9582c-47,-3 -52,-6 -67,-38c-42,-88 -6,-147 113,-184c84,-25 371,-62 385,-49c6,6 10,41 10,79c0,65 -2,71 -34,104c-60,62 -118,78 -311,89c-25,1 -68,1 -96,-1z" fill="#ffffff" id="svg_16"/>
   <path d="m10366,9404c-9,-24 42,-85 156,-186c95,-85 128,-100 128,-60c0,19 -246,262 -265,262c-7,0 -16,-7 -19,-16z" fill="#ffffff" id="svg_17"/>
   <path d="m10160,9215c0,-30 28,-84 52,-98c12,-8 38,-18 57,-22l33,-7l-7,33c-11,48 -31,75 -70,93c-42,20 -65,20 -65,1z" fill="#ffffff" id="svg_18"/>
   <path d="m10484,8953c-15,-60 51,-112 104,-82c40,22 38,49 -5,82c-48,36 -90,36 -99,0z" fill="#ffffff" id="svg_19"/>
   <path d="m10295,8570c-4,-22 -4,-53 0,-70c6,-28 10,-30 50,-30c56,0 73,19 57,64c-7,18 -12,42 -12,54c0,19 -5,22 -44,22c-44,0 -44,0 -51,-40z" fill="#ffffff" id="svg_20"/>
   <path d="m7247,8825c-22,-7 -49,-22 -60,-32c-12,-11 -49,-29 -82,-42c-171,-67 -353,-191 -532,-366c-88,-86 -113,-116 -113,-136c0,-24 16,-39 40,-39c4,0 40,33 79,73c83,85 481,368 561,398c29,11 76,19 109,19c67,0 113,25 144,78l19,32l-36,15c-43,18 -79,18 -129,0z" fill="#ffffff" id="svg_21"/>
   <path d="m7150,8569c-234,-83 -460,-258 -663,-513c-116,-146 -132,-173 -117,-191c23,-28 47,-16 92,45c62,85 687,585 762,609c43,14 51,20 51,41c0,22 -5,25 -35,27c-19,1 -60,-7 -90,-18z" fill="#ffffff" id="svg_22"/>
   <path d="m7204,8326c-260,-131 -313,-165 -396,-255c-59,-63 -83,-107 -104,-186c-12,-45 -19,-115 -11,-115c2,0 80,35 173,79c195,90 275,135 360,202l61,47l169,21c213,26 259,26 309,1c22,-11 45,-20 52,-20c8,0 13,-12 13,-28c0,-38 40,-93 88,-120c34,-19 41,-20 46,-7c3,9 18,15 36,15c29,0 30,2 30,45c0,56 -19,94 -76,155c-48,51 -64,85 -64,136c0,19 -5,34 -11,34c-6,0 -30,15 -52,33c-31,24 -51,32 -82,32c-30,0 -52,-8 -85,-32c-25,-19 -56,-33 -72,-33c-23,0 -32,8 -53,49c-13,27 -28,52 -33,55c-33,20 -69,7 -298,-108z" fill="#ffffff" id="svg_23"/>
   <path d="m6353,8122c-17,-12 -46,-81 -39,-97c14,-38 63,1 72,57c6,36 -10,55 -33,40z" fill="#ffffff" id="svg_24"/>
   <path d="m10749,7563c-24,-83 -16,-192 27,-358c36,-138 39,-161 39,-285l0,-136l-45,-62c-25,-34 -50,-60 -57,-57c-16,5 -100,-80 -123,-126c-40,-78 -42,-197 -5,-309c15,-45 20,-50 46,-50c43,0 86,25 105,61c17,34 34,165 34,272c0,76 11,108 65,187c24,36 43,54 54,52c25,-4 49,27 72,94c19,53 21,74 16,199c-8,218 -75,448 -154,533c-43,44 -58,41 -74,-15z" fill="#ffffff" id="svg_25"/>
   <path d="m7287,7210c-64,-11 -181,-68 -235,-115c-86,-75 -231,-319 -212,-355c27,-51 63,-26 120,85c45,86 66,115 85,115c7,0 20,9 31,21c27,30 53,42 184,84c138,45 176,63 214,104c37,39 29,48 -50,61c-66,11 -69,11 -137,0z" fill="#ffffff" id="svg_26"/>
   <path d="m8325,7130c-89,-19 -166,-64 -190,-111c-14,-26 -13,-28 19,-43c68,-32 187,-12 265,44c46,34 85,90 72,103c-13,13 -120,17 -166,7z" fill="#ffffff" id="svg_27"/>
   <path d="m7471,6961c-14,-15 -38,-32 -51,-36c-49,-15 -97,-51 -210,-161c-126,-121 -151,-138 -224,-149c-68,-9 -108,-50 -104,-102c3,-38 3,-38 51,-41c41,-3 51,1 77,26c16,17 51,40 77,53c29,14 97,70 170,141c144,138 177,158 265,158c137,0 187,93 69,128c-62,19 -90,15 -120,-17z" fill="#ffffff" id="svg_28"/>
   <path d="m6554,6881c-123,-75 -129,-284 -12,-457c60,-90 136,-128 201,-100c20,8 37,20 37,27c0,6 -29,77 -64,158c-69,159 -101,256 -112,339c-4,28 -9,52 -13,52c-3,0 -20,-9 -37,-19z" fill="#ffffff" id="svg_29"/>
   <path d="m5856,6694c-11,-28 -6,-60 15,-113c12,-28 19,-55 15,-58c-6,-7 -43,2 -191,44c-67,19 -127,9 -162,-25c-16,-16 -49,-36 -75,-46c-55,-20 -99,-66 -123,-129c-23,-60 -18,-92 15,-92c19,0 26,6 28,26c3,26 132,165 132,142c0,-8 26,-12 83,-12c197,0 320,-70 348,-198c7,-29 10,-55 7,-58c-2,-2 -49,-12 -104,-20c-159,-26 -233,-43 -283,-68c-25,-13 -63,-27 -84,-31c-51,-10 -83,-54 -96,-136c-14,-86 -14,-90 7,-90c11,0 33,-7 51,-16c25,-12 38,-14 59,-6c15,6 43,14 62,17c19,4 50,16 69,28c45,27 168,36 177,13c10,-26 -14,-103 -67,-218c-75,-160 -79,-195 -44,-375c16,-81 29,-180 30,-218l0,-71l-54,-62c-30,-34 -62,-62 -71,-62c-15,0 -18,-12 -22,-64c-3,-58 -9,-72 -52,-134c-26,-38 -51,-86 -56,-106c-7,-33 -4,-43 39,-109c52,-79 276,-327 296,-327c7,0 16,-7 19,-16c4,-10 15,-14 33,-12c27,3 28,4 25,58c-5,73 -28,124 -90,191c-64,70 -75,96 -52,119c10,10 19,23 22,31c3,10 20,10 89,1c48,-7 117,-9 159,-6l75,7l50,79c28,44 67,108 89,142c51,81 76,156 76,230l0,61l74,33c124,56 162,33 112,-67c-14,-28 -26,-64 -26,-80c0,-28 2,-29 59,-36c79,-9 185,8 336,56c69,21 156,44 193,50l67,12l196,194l196,194l134,6c262,12 276,10 381,-45c10,-5 38,53 38,80c0,13 -16,51 -36,85c-41,69 -60,77 -154,62c-30,-5 -91,-12 -136,-15l-80,-7l-28,34c-72,89 -98,101 -144,65c-19,-15 -41,-21 -77,-21c-45,0 -64,8 -148,59c-113,68 -165,83 -222,64c-21,-7 -40,-19 -42,-25c-7,-21 89,-106 166,-148c88,-47 151,-103 151,-134c0,-32 -33,-91 -72,-127c-65,-62 -131,-84 -365,-124c-167,-28 -265,-49 -305,-65c-23,-9 -24,24 -3,64c17,33 61,53 160,71c81,15 194,68 223,105c11,14 26,25 33,25c19,1 54,30 67,56c18,34 -71,235 -127,289l-31,29l-23,-22c-28,-29 -27,-83 4,-159c16,-38 24,-78 24,-117c0,-53 -3,-61 -28,-80c-18,-13 -30,-17 -35,-10c-12,19 -73,34 -133,34c-64,0 -159,-18 -261,-50c-55,-17 -69,-25 -74,-45c-7,-30 2,-74 21,-95c8,-8 18,-27 24,-42c10,-27 8,-28 -53,-58c-66,-31 -92,-37 -81,-20c4,6 -22,10 -70,10c-48,0 -74,4 -70,10c3,6 2,10 -4,10c-5,0 -11,12 -13,28c-3,31 -44,45 -54,18c-5,-12 -22,-16 -76,-16l-69,0l-24,53c-39,84 -51,181 -37,283c15,101 42,189 128,418c111,295 137,453 99,601c-23,87 -63,165 -85,165c-10,0 -32,11 -48,25c-34,29 -87,34 -96,9zm-256,-754c0,-30 -22,-50 -55,-50c-13,0 -15,6 -10,33c10,44 13,47 41,47c20,0 24,-5 24,-30zm485,-970c3,-5 -2,-37 -11,-71c-12,-43 -39,-92 -95,-171c-43,-60 -81,-118 -84,-129c-4,-13 -16,-19 -36,-19c-19,0 -29,-5 -29,-15c0,-8 -9,-15 -20,-15c-36,0 -45,37 -45,178l0,133l75,42c41,23 84,46 95,51c55,24 139,33 150,16z" fill="#ffffff" id="svg_30"/>
   <path d="m8170,6698c-52,-14 -54,-22 -21,-56c39,-39 115,-67 216,-81c110,-16 190,3 215,48c14,28 15,26 -39,50c-109,47 -281,65 -371,39z" fill="#ffffff" id="svg_31"/>
   <path d="m7600,6614c-58,-59 -116,-88 -236,-119c-54,-13 -101,-30 -106,-37c-20,-32 0,-68 37,-68c39,0 181,41 241,69c123,58 202,159 150,193c-23,16 -43,7 -86,-38z" fill="#ffffff" id="svg_32"/>
   <path d="m8080,5647c0,-42 3,-46 77,-108c126,-104 144,-157 142,-420c-1,-126 2,-164 18,-207c10,-29 23,-52 28,-51c17,5 84,91 105,137c126,268 1,599 -256,677c-27,8 -64,15 -81,15c-32,0 -33,-1 -33,-43z" fill="#ffffff" id="svg_33"/>
   <path d="m7613,5207c-65,-59 -114,-91 -278,-179c-160,-86 -166,-89 -450,-197c-274,-104 -342,-132 -443,-186c-110,-59 -207,-124 -272,-182c-29,-26 -61,-48 -71,-48c-23,-2 -75,-50 -95,-87c-15,-28 -19,-135 -6,-155c11,-18 82,17 115,56c14,18 35,55 44,83c28,79 90,127 329,255c157,84 263,132 424,193c392,148 524,212 675,325c96,73 127,108 123,136c-5,41 -42,36 -95,-14z" fill="#ffffff" id="svg_34"/>
   <path d="m9510,4921c0,-16 -12,-49 -26,-74c-22,-40 -24,-54 -19,-104l6,-58l-276,-310c-233,-262 -284,-314 -329,-337c-58,-29 -72,-49 -56,-79c16,-29 47,-23 148,31c322,171 518,384 581,631c11,45 27,79 44,97c35,36 47,79 47,164l0,68l-60,0c-59,0 -60,0 -60,-29z" fill="#ffffff" id="svg_35"/>
   <path d="m6102,3908c-37,-167 -39,-331 -7,-479c9,-41 36,-115 60,-165c53,-110 120,-181 226,-240c41,-23 95,-53 120,-68c172,-98 418,-114 619,-39c232,86 434,235 748,552c184,186 203,208 200,235c-2,25 -8,32 -30,34c-21,3 -36,-6 -65,-36c-35,-37 -93,-61 -771,-330l-733,-290l-39,41c-83,89 -119,193 -175,512c-48,270 -44,259 -89,294c-21,17 -42,31 -46,31c-4,0 -12,-24 -18,-52z" fill="#ffffff" id="svg_36"/>
   <path d="m2720,6456c-261,-88 -299,-103 -420,-168c-119,-63 -199,-120 -269,-192c-46,-47 -52,-57 -41,-70c16,-21 44,-20 61,0c7,9 22,20 34,24c39,15 877,182 882,176c13,-13 -72,-118 -130,-160c-90,-68 -196,-107 -384,-142c-32,-6 -30,-50 4,-86c57,-59 23,-133 -157,-338c-51,-58 -105,-125 -120,-148l-27,-44l23,-24c13,-12 24,-30 24,-40c0,-9 6,-28 14,-42c8,-15 21,-97 30,-182c16,-160 41,-300 77,-445c24,-96 28,-98 99,-62c82,41 102,80 195,382c64,210 86,265 109,277c49,28 459,2 626,-39c86,-21 121,-39 280,-146c170,-114 233,-160 281,-207c31,-30 163,-110 182,-110c2,0 7,14 11,31c16,80 -46,171 -156,229c-35,19 -115,77 -178,130c-152,127 -238,194 -276,213c-43,22 -180,46 -302,54c-71,4 -116,12 -140,25c-41,21 -83,22 -199,8c-57,-7 -89,-7 -109,0c-22,9 -30,8 -33,-1c-2,-7 -23,-32 -47,-55c-34,-33 -44,-49 -44,-75c0,-18 -16,-79 -36,-136c-36,-102 -37,-103 -76,-115c-62,-18 -86,0 -124,97c-17,44 -39,96 -48,116c-29,64 -23,80 62,165c43,44 114,129 157,189c120,168 192,251 259,302c59,44 149,93 172,93c7,0 35,46 63,103c54,109 62,155 37,205c-7,15 -16,57 -19,95c-3,47 -11,77 -27,100c-24,34 -69,74 -91,81c-8,3 -111,-28 -229,-68z" fill="#ffffff" id="svg_37"/>
   <path d="m1148,6514c-5,-4 -8,-18 -8,-32c0,-14 -16,-43 -38,-68c-21,-23 -53,-70 -71,-104c-18,-33 -36,-60 -41,-60c-20,0 -104,-100 -135,-162c-43,-86 -53,-149 -31,-183c16,-24 22,-55 11,-55c-4,0 -19,7 -35,15l-29,15l-5,-43c-37,-314 -50,-703 -27,-837c17,-99 70,-260 86,-260c18,0 76,-137 82,-195c4,-39 2,-55 -11,-68c-16,-15 -19,-15 -51,0c-19,9 -35,23 -35,30c0,7 -22,24 -50,38c-31,16 -50,32 -50,43c0,15 -24,85 -60,177c-6,16 -17,62 -25,101c-15,81 -40,134 -96,211c-22,29 -39,60 -39,70c-1,66 -38,175 -112,330c-69,142 -87,172 -104,173c-12,0 -47,12 -78,26c-56,25 -104,32 -143,20c-25,-8 -50,-110 -33,-131c9,-11 8,-40 -4,-124c-26,-178 -19,-331 24,-536c45,-214 120,-408 269,-700c59,-115 117,-242 129,-281c12,-39 31,-83 43,-98c24,-30 69,-56 98,-56c26,0 183,-206 201,-265c9,-26 43,-71 104,-135l91,-95l77,-265c118,-406 131,-466 129,-594c-1,-130 12,-195 98,-458c73,-226 85,-279 79,-357c-5,-76 -23,-102 -108,-158c-99,-66 -200,-162 -281,-270c-40,-54 -110,-136 -154,-183c-45,-47 -91,-106 -103,-131c-20,-41 -47,-157 -38,-166c1,-2 23,4 48,12c63,22 117,79 168,176c99,193 248,374 380,465c50,34 72,44 84,37c14,-8 13,-14 -13,-53c-16,-25 -87,-106 -158,-181c-135,-144 -186,-216 -201,-287c-9,-38 -8,-44 11,-57c30,-21 33,-20 82,31c59,61 89,59 93,-6c2,-24 -2,-81 -8,-127c-14,-105 -3,-149 47,-193c31,-28 37,-30 45,-16c5,9 22,16 38,16c51,0 62,43 70,280c9,262 19,295 158,528c50,85 55,99 53,145c-3,86 -37,232 -96,417c-74,231 -90,300 -110,455c-19,149 -46,282 -105,515c-89,355 -164,515 -302,645c-75,72 -94,86 -115,89c-10,1 -49,43 -86,92c-37,49 -84,105 -104,126c-19,20 -33,40 -30,46c15,23 -17,86 -66,133c-28,27 -56,49 -62,49c-6,0 -23,26 -38,58c-30,67 -362,1405 -353,1427c3,9 19,15 40,15c63,0 111,-90 166,-310c64,-253 110,-338 214,-388c41,-20 43,-23 102,-200c21,-62 26,-87 18,-99c-6,-9 -39,-26 -75,-38c-50,-17 -65,-26 -67,-43c-5,-33 20,-36 92,-12l64,21l33,-20c19,-12 44,-21 57,-21c12,0 22,-6 22,-13c0,-7 32,-44 71,-82c84,-84 117,-136 128,-204c8,-50 8,-51 -28,-77c-57,-42 -101,-87 -117,-116c-12,-23 -12,-29 1,-42c20,-19 38,-12 56,20c7,14 48,52 89,83c94,71 124,78 385,90c199,9 242,19 279,60c19,21 19,21 -30,43c-42,19 -70,23 -207,26l-158,4l-70,145c-68,138 -125,218 -180,249c-8,5 -31,47 -51,94c-49,114 -58,231 -58,720c0,413 1,417 59,479c39,42 99,179 119,273c20,88 45,141 90,191c21,22 34,27 74,27c56,0 125,-25 138,-51c17,-30 11,-215 -10,-343c-18,-107 -23,-123 -47,-141c-90,-69 -123,-97 -123,-104c0,-5 14,-12 30,-16c38,-8 50,-31 50,-93c0,-39 5,-53 25,-72l25,-23l0,-216l-1,-216l-29,-39c-22,-29 -38,-40 -62,-43c-44,-4 -58,-10 -58,-24c0,-7 13,-9 39,-4c47,8 99,-21 172,-96c68,-70 118,-150 227,-366l97,-193l112,0c76,0 113,4 115,12c5,15 106,-4 180,-35c79,-32 168,-86 168,-102c0,-8 28,-43 63,-79c54,-58 67,-66 99,-66c20,0 46,8 58,18c21,17 22,22 11,54c-16,50 -86,111 -155,137c-32,12 -90,39 -129,60c-72,40 -168,74 -242,86c-49,8 -85,26 -131,67c-104,92 -156,261 -185,613c-7,84 -18,158 -25,169c-16,23 -19,13 89,254c66,145 106,220 140,263c55,68 60,104 16,104c-20,0 -40,-17 -89,-75c-151,-181 -221,-320 -240,-479c-8,-71 -29,-177 -51,-263c-8,-32 -14,-38 -35,-38c-14,0 -39,9 -55,21l-30,21l4,246c2,178 8,275 21,347c14,82 16,109 6,150c-10,42 -8,69 9,171c22,128 27,272 11,339c-6,25 -6,41 0,43c18,6 10,51 -11,71c-12,11 -43,27 -68,36c-51,18 -192,32 -203,19z" fill="#ffffff" id="svg_38"/>
   <path d="m2917,4860c-11,-41 15,-92 67,-132c60,-45 78,-75 80,-138c1,-58 -15,-80 -87,-110c-57,-25 -107,-57 -107,-69c0,-5 19,-20 43,-35c87,-55 127,-142 183,-395c19,-86 41,-178 50,-206c21,-64 55,-126 66,-119c4,3 37,-16 73,-42c36,-25 137,-79 225,-119c175,-81 245,-124 247,-152c1,-20 103,-265 148,-353c37,-75 106,-178 147,-219c33,-34 114,-91 130,-91c14,0 9,174 -8,231c-9,30 -41,101 -71,159c-122,229 -124,234 -95,298c12,26 33,82 48,124c36,105 41,111 82,97c17,-6 32,-17 32,-23c0,-47 95,-62 135,-21c35,34 32,60 -7,76c-41,17 -110,18 -116,1c-7,-22 -44,-12 -75,21c-40,42 -80,133 -103,232c-33,142 -22,455 22,611c5,19 -1,22 -73,37c-82,16 -125,14 -143,-8c-8,-9 -8,-100 -1,-317c11,-311 20,-386 62,-498c26,-67 28,-154 6,-196c-9,-18 -30,-44 -48,-58l-31,-26l-52,30c-28,17 -80,45 -116,62c-207,98 -269,128 -300,150l-34,25l-2,124c-2,132 -10,171 -79,399c-62,206 -54,333 29,421l25,27l137,-44c78,-26 149,-55 165,-69c32,-26 59,-24 59,5c0,25 -84,98 -146,126c-64,30 -148,46 -197,38c-35,-5 -44,-1 -113,51c-92,69 -155,102 -210,111c-37,5 -42,4 -47,-16z" fill="#ffffff" id="svg_39"/>
   <path d="m4125,4645c-18,-17 -25,-35 -25,-63c0,-54 19,-69 70,-53c21,6 45,10 52,9c18,-4 23,47 8,82c-10,25 -46,50 -71,50c-5,0 -21,-11 -34,-25z" fill="#ffffff" id="svg_40"/>
   <path d="m10468,4010c-103,-18 -338,-115 -338,-140c0,-6 -4,-10 -10,-10c-17,0 -294,-121 -309,-135c-20,-19 -5,-55 23,-55c13,0 88,28 166,61c116,50 154,62 197,62c48,0 74,-7 62,-16c-2,-2 -73,-40 -158,-86c-463,-248 -873,-540 -1341,-953c-226,-200 -620,-585 -620,-607c0,-18 18,-41 33,-41c5,0 62,51 126,113c90,88 308,259 991,779c809,615 998,750 1008,720c1,-5 28,5 59,24c30,18 92,45 137,60c126,42 198,78 240,122l38,40l-46,27c-75,44 -147,53 -258,35z" fill="#ffffff" id="svg_41"/>
   <path d="m12030,3841c-14,-36 -63,-86 -113,-118c-20,-13 -108,-48 -195,-77c-87,-30 -181,-66 -210,-80c-53,-27 -122,-88 -122,-108c0,-21 42,-73 75,-95c61,-41 106,-46 325,-38l206,7l48,-56c43,-51 51,-56 87,-56c37,0 41,3 56,38c26,60 20,158 -21,316c-23,89 -36,161 -36,202c0,51 -3,64 -15,64c-9,0 -29,7 -44,15c-28,14 -29,13 -41,-14z" fill="#ffffff" id="svg_42"/>
   <path d="m1327,3799c-24,-14 -21,-45 5,-63c12,-9 19,-16 14,-16c-4,0 16,-27 47,-59c64,-70 132,-170 178,-263l33,-68l73,0c71,0 76,-2 164,-55c50,-30 98,-57 107,-60c9,-2 29,-24 44,-47c15,-24 79,-99 143,-168c90,-95 133,-152 186,-241c38,-64 81,-132 96,-150c27,-32 108,-89 126,-89c14,0 -1,132 -23,204c-43,136 -166,297 -327,426c-109,88 -196,145 -201,132c-4,-13 -67,16 -162,76c-50,32 -66,49 -85,90c-73,158 -200,281 -352,341c-34,13 -54,16 -66,10z" fill="#ffffff" id="svg_43"/>
   <path d="m2440,3731c-40,-8 -87,-36 -100,-61c-6,-12 -27,-19 -65,-24c-76,-9 -125,-30 -125,-54c0,-35 23,-44 66,-25c29,12 82,18 209,22l170,6l3,33c7,72 -66,120 -158,103z" fill="#ffffff" id="svg_44"/>
   <path d="m9003,3274c-10,-26 10,-69 31,-69c26,0 44,30 30,52c-16,25 -54,36 -61,17z" fill="#ffffff" id="svg_45"/>
   <path d="m9889,3071c-64,-22 -181,-67 -260,-100c-182,-78 -599,-291 -613,-314c-14,-22 3,-51 32,-55c11,-2 83,31 159,72c264,142 515,252 768,337c59,20 71,28 73,48c3,22 -19,52 -37,51c-3,-1 -58,-18 -122,-39z" fill="#ffffff" id="svg_46"/>
   <path d="m2964,2323c3,-10 8,-31 11,-48c21,-97 61,-191 106,-252c45,-58 49,-69 49,-119c0,-54 0,-54 31,-54c17,0 40,-5 51,-11c26,-14 44,6 54,58c8,44 -2,80 -30,106c-12,12 -28,45 -35,72c-36,146 -108,233 -214,259c-24,6 -28,4 -23,-11z" fill="#ffffff" id="svg_47"/>
   <path d="m2879,1017c-46,-44 -278,-135 -574,-227c-282,-87 -380,-113 -515,-135c-112,-19 -130,-26 -130,-57c0,-28 24,-32 114,-19c271,41 647,153 991,296c75,31 143,54 151,51c11,-4 -2,-26 -54,-88c-154,-184 -259,-360 -297,-502c-18,-67 -18,-69 0,-82c40,-30 121,-12 254,54l54,27l32,100c48,147 79,224 156,384c38,79 69,145 69,147c0,2 -6,4 -12,4c-7,0 -42,18 -78,40c-81,50 -114,51 -161,7z" fill="#ffffff" id="svg_48"/>
   <path d="m553,591c-5,-20 -8,-88 -7,-151c1,-122 18,-229 60,-362l25,-78l63,0c54,0 66,3 86,25c30,31 37,117 22,239c-13,97 -1,141 45,172l32,22l-50,6c-45,6 -56,13 -117,76c-53,55 -76,71 -109,79l-43,9l-7,-37z" fill="#ffffff" id="svg_49"/>
  </g>
 </g>
</svg>